PathFileType	4	(X/Y/Z)	maxSprint.trc
DataRate	CameraRate	NumFrames	NumMarkers	Units	OrigDataRate	OrigDataStartFrame	OrigNumFrames
250.000000	250.000000	4	38	mm	250.000000	235	377
Frame#	Time	RASI			LASI			LAIC			RTH1			RTH2			RTH3			RTB1			RTB2			RTB3			RMT1			RMT5			LTH1			LTH2			LTH3			LTB1			LTB3			CLAV			STRN			RACR			LACR			LMT5			RPSI			LTB2			LMT1			RAIC			LCAL			T10			C7			LPSI			RCAL			*30			*31			*32			*33			RHJC			LHJC			MTOR			MPEL			
		X1	Y1	Z1	X2	Y2	Z2	X3	Y3	Z3	X4	Y4	Z4	X5	Y5	Z5	X6	Y6	Z6	X7	Y7	Z7	X8	Y8	Z8	X9	Y9	Z9	X10	Y10	Z10	X11	Y11	Z11	X12	Y12	Z12	X13	Y13	Z13	X14	Y14	Z14	X15	Y15	Z15	X16	Y16	Z16	X17	Y17	Z17	X18	Y18	Z18	X19	Y19	Z19	X20	Y20	Z20	X21	Y21	Z21	X22	Y22	Z22	X23	Y23	Z23	X24	Y24	Z24	X25	Y25	Z25	X26	Y26	Z26	X27	Y27	Z27	X28	Y28	Z28	X29	Y29	Z29	X30	Y30	Z30	X31	Y31	Z31	X32	Y32	Z32	X33	Y33	Z33	X34	Y34	Z34	X35	Y35	Z35	X36	Y36	Z36	X37	Y37	Z37	X38	Y38	Z38	

236	0.9400000000000001	1501.292846679688	970.1083984375005	304.5705871582032	1538.312377929688	942.453247070313	93.40762329101565	1492.250854492188	1019.713195800782	40.22573089599611	1445.787841796875	741.445007324219	383.578094482422	1523.170776367188	671.2847290039065	386.2344665527346	1493.994750976563	569.9898681640627	371.2689514160157	1486.431274414063	339.060516357422	264.0657348632814	1447.093139648438	273.3947753906251	302.9969787597657	1403.839111328125	228.3712158203126	245.246795654297	1398.779418945313	34.26491165161134	243.1355133056642	1348.653686523438	41.70958328247072	344.338592529297	1616.558227539063	659.9617919921877	52.08001708984378	1544.480346679688	725.7828369140627	33.29248428344728	1591.480468750001	560.1384887695315	61.7100639343262	1512.974487304688	453.425720214844	161.3486633300782	1382.894897460938	503.330017089844	159.8595275878907	1610.362792968751	1369.699584960938	215.2279510498048	1617.415161132813	1170.313354492188	221.7009124755861	1508.723022460938	1373.004760742188	427.8467102050784	1535.47998046875	1411.610473632813	-12.61730957031251	1133.361206054688	463.9758911132815	37.79234695434572	1341.888549804688	1016.61669921875	201.5079803466798	1441.94775390625	464.1888427734377	112.6195831298829	1114.832763671875	455.9308776855471	144.1762390136719	1407.540771484375	1028.250244140625	329.9838256835939	1197.409301757813	665.4642333984377	130.0046691894532	1377.212768554688	1214.609741210938	170.8545379638672	1485.987060546875	1458.594116210938	204.461883544922	1362.406982421875	1002.233581542969	108.9641265869141	1192.802734375	92.80957794189456	190.0536346435547	1504.119018554688	491.3991394042971	352.9566955566407	1245.697998046875	122.5308914184571	264.1285400390626	1238.763671875	598.3713989257815	79.70192718505862	1631.966186523438	482.6678161621096	85.71882629394534	1446.410432722708	917.0561626578963	264.2877928955241	1470.845823744205	898.8018948538996	124.9059742412689	1535.138214111329	1403.227233886719	208.7298088073732	1435.975189208985	982.852981567383	177.1125793457032	
237	0.9440000000000001	1527.409423828125	969.974731445313	305.3699951171876	1564.315307617188	943.9069213867192	93.30860900878909	1516.501831054688	1020.158630371094	40.32186508178712	1465.7080078125	739.8393554687502	383.1861877441407	1540.467285156251	667.277038574219	386.501892089844	1508.353881835938	566.9627685546877	370.9145812988282	1493.378784179688	336.7879638671876	262.9268493652345	1453.98095703125	271.1965942382814	301.9288635253907	1408.064453125	228.0778961181642	244.8203277587892	1398.806762695313	34.53382873535158	243.4730987548829	1348.6142578125	41.68585205078126	344.831512451172	1651.784423828126	669.5235595703127	52.89509963989261	1576.818847656251	731.9088134765627	33.65266418457033	1631.297973632813	568.584655761719	61.97196960449222	1555.921875000001	460.2490234375002	162.2857666015626	1424.290893554688	504.9707031250002	160.2458953857422	1637.098144531251	1370.076293945313	213.5092620849611	1643.596313476563	1170.945190429688	219.7934112548829	1538.942626953126	1375.571533203125	427.6705627441409	1558.039184570313	1413.408813476563	-12.76710891723634	1181.305786132813	454.270690917969	33.6327362060547	1368.414428710938	1017.950622558594	202.2932434082032	1485.345336914063	466.4158630371096	113.8218078613282	1160.766357421875	444.632263183594	139.4573822021485	1432.204467773438	1029.784545898438	330.0880432128907	1231.494873046875	658.588317871094	128.6887969970704	1403.422485351563	1214.818359375	172.6154022216797	1511.6943359375	1459.048217773438	204.3194274902345	1388.525390625	1003.93115234375	109.6633834838868	1194.3115234375	97.86923217773443	191.3996582031251	1516.0205078125	487.4667053222659	353.1471557617189	1247.878051757813	126.2577362060547	264.7559509277345	1277.6318359375	593.7333984375002	78.1470642089844	1675.025878906251	492.2454528808596	86.96531677246097	1472.304465738438	917.2343895122909	264.5833982624881	1496.664834150952	900.0278795594534	124.6086039669545	1561.443572998047	1404.52621459961	208.183035850525	1462.166137695313	983.940856933594	177.6588077545167	
238	0.9480000000000001	1553.163330078126	969.3915405273442	305.573944091797	1590.511352539063	945.5186157226567	93.14566040039065	1541.312866210938	1020.957275390625	40.39469528198244	1485.777099609375	737.9666748046877	382.883758544922	1557.590698242188	662.884704589844	387.1218261718752	1522.41455078125	563.8489990234377	370.146453857422	1500.319580078125	335.0257873535157	261.9275512695314	1460.439208984375	269.8359680175782	301.0860290527345	1412.4345703125	228.4550170898439	244.592742919922	1398.845825195313	34.89969635009767	243.8352966308595	1348.570190429688	41.43794631958009	345.2791748046876	1686.699462890626	679.5200195312502	53.63038635253909	1608.840087890626	738.2650146484377	34.09401321411134	1670.760009765626	577.568786621094	62.23959732055667	1599.392211914063	466.9199829101565	164.0811462402344	1465.697143554688	506.5448913574221	160.2019042968751	1663.744750976563	1370.886474609375	211.5679931640626	1670.151733398438	1171.98388671875	217.2269134521486	1569.261108398438	1378.36767578125	427.4010009765627	1580.074218750001	1415.867797851563	-12.96555328369141	1229.400390625	444.5943298339846	29.8286819458008	1395.05224609375	1019.086120605469	203.1344146728517	1527.711059570313	469.0599060058596	115.0797119140626	1206.749755859375	433.6063537597659	135.3033752441407	1458.142944335938	1031.227783203125	330.3525695800782	1265.43603515625	650.560974121094	127.2764892578126	1429.973266601563	1214.877197265625	174.2461395263672	1537.248657226563	1459.568115234375	204.6182861328126	1414.163208007813	1005.306762695313	110.6870574951172	1196.341186523438	103.8247299194337	192.2445678710939	1527.719604492188	483.6524963378909	353.185272216797	1250.561157226563	130.1360015869141	265.8470764160157	1316.067626953125	588.440612792969	76.96841430664065	1717.625732421876	502.7593688964846	88.14932250976565	1498.089319974586	917.1046005205098	264.0894708599363	1522.741527573252	901.346863979357	123.8725114515439	1587.582183837891	1406.172515869141	207.6554317474366	1488.222534179688	984.8257598876958	178.1352691650391	
239	0.9520000000000001	1579.775268554688	969.008666992188	305.8176879882814	1616.885253906251	947.307006835938	92.91888427734378	1566.558959960938	1022.017333984375	40.31117630004884	1505.846557617188	735.9765625000002	382.4481201171876	1574.682983398438	657.893249511719	387.4258422851565	1536.177246093751	560.8117675781252	369.2005004882814	1507.39404296875	334.0901489257814	261.3077697753907	1466.684814453125	269.3874816894532	300.436981201172	1417.105712890625	229.3490753173829	244.5677795410157	1398.917602539063	35.22503662109376	244.166229248047	1348.902709960938	41.68699264526369	346.0058593750001	1720.810302734376	689.8282470703127	54.75553894042972	1640.390136718751	744.659851074219	34.7223472595215	1709.810791015626	587.2256469726565	62.73448562622073	1641.574707031251	474.2042236328127	164.468490600586	1506.455200195313	507.5845336914065	160.4844665527344	1690.391601562501	1372.347290039063	209.3393554687501	1696.938964843751	1173.408813476563	214.4084014892579	1599.914062500001	1381.498168945313	426.6539001464846	1602.005737304688	1418.368896484375	-12.78238487243653	1277.724365234375	434.7220458984377	26.0286159515381	1421.767578125	1020.3232421875	204.6317443847657	1570.198608398438	471.8199462890627	116.1057128906251	1253.430297851563	421.2180175781252	130.9175567626954	1485.3544921875	1032.580200195313	330.8249511718751	1299.92529296875	641.091247558594	125.5088806152344	1456.084350585938	1215.012084960938	176.3116455078126	1563.089111328126	1460.33349609375	204.2792358398439	1440.563232421875	1006.900207519532	111.8799209594727	1198.72314453125	109.8304595947266	193.0393524169923	1539.244628906251	479.9446411132815	353.236541748047	1253.696166992188	134.5331726074219	266.7880859375001	1354.336791992188	582.380065917969	75.65563964843753	1759.966430664063	513.8218383789065	89.1286315917969	1524.596783460867	917.1773211123451	263.8219455904161	1549.091868342962	902.8527666137716	123.2944239869525	1613.850128173829	1408.136962890625	206.8725266456605	1514.747833251954	985.8847808837895	178.8120594024659	
